<svg id="visual" viewBox="0 0 900 600" width="900" height="600" xmlns="http://www.w3.org/2000/svg" xmlns:xlink="http://www.w3.org/1999/xlink" version="1.1"><g stroke-width="1" stroke-linejoin="bevel"><path d="M343 288L143 306L356 440Z" fill="#1f385b" stroke="#1f385b"></path><path d="M143 306L144 455L356 440Z" fill="#13233b" stroke="#13233b"></path><path d="M343 288L209 168L143 306Z" fill="#0a1628" stroke="#0a1628"></path><path d="M144 455L338 600L356 440Z" fill="#13233b" stroke="#13233b"></path><path d="M144 455L157 600L338 600Z" fill="#172a46" stroke="#172a46"></path><path d="M0 118L0 328L143 306Z" fill="#2e5888" stroke="#2e5888"></path><path d="M143 306L0 328L144 455Z" fill="#2e5888" stroke="#2e5888"></path><path d="M144 455L0 480L157 600Z" fill="#274871" stroke="#274871"></path><path d="M0 328L0 480L144 455Z" fill="#274871" stroke="#274871"></path><path d="M338 600L500 484L356 440Z" fill="#0a1628" stroke="#0a1628"></path><path d="M356 440L564 268L343 288Z" fill="#2e5888" stroke="#2e5888"></path><path d="M343 288L345 110L209 168Z" fill="#040d1f" stroke="#040d1f"></path><path d="M505 175L345 110L343 288Z" fill="#040d1f" stroke="#040d1f"></path><path d="M564 268L505 175L343 288Z" fill="#2a507c" stroke="#2a507c"></path><path d="M500 484L564 268L356 440Z" fill="#172a46" stroke="#172a46"></path><path d="M0 480L0 600L157 600Z" fill="#13233b" stroke="#13233b"></path><path d="M338 600L505 600L500 484Z" fill="#172a46" stroke="#172a46"></path><path d="M500 484L690 299L564 268Z" fill="#0a1628" stroke="#0a1628"></path><path d="M209 168L0 118L143 306Z" fill="#040d1f" stroke="#040d1f"></path><path d="M188 0L0 118L209 168Z" fill="#1f385b" stroke="#1f385b"></path><path d="M361 0L188 0L345 110Z" fill="#1b3150" stroke="#1b3150"></path><path d="M345 110L188 0L209 168Z" fill="#2a507c" stroke="#2a507c"></path><path d="M530 0L361 0L345 110Z" fill="#172a46" stroke="#172a46"></path><path d="M564 268L704 150L505 175Z" fill="#234066" stroke="#234066"></path><path d="M505 175L530 0L345 110Z" fill="#0e1c32" stroke="#0e1c32"></path><path d="M735 464L690 299L500 484Z" fill="#040d1f" stroke="#040d1f"></path><path d="M188 0L0 0L0 118Z" fill="#0a1628" stroke="#0a1628"></path><path d="M704 150L530 0L505 175Z" fill="#0a1628" stroke="#0a1628"></path><path d="M698 600L735 464L500 484Z" fill="#040d1f" stroke="#040d1f"></path><path d="M505 600L698 600L500 484Z" fill="#0e1c32" stroke="#0e1c32"></path><path d="M900 262L704 150L690 299Z" fill="#172a46" stroke="#172a46"></path><path d="M690 299L704 150L564 268Z" fill="#0a1628" stroke="#0a1628"></path><path d="M900 122L757 0L704 150Z" fill="#2a507c" stroke="#2a507c"></path><path d="M704 150L757 0L530 0Z" fill="#0e1c32" stroke="#0e1c32"></path><path d="M900 600L900 446L735 464Z" fill="#274871" stroke="#274871"></path><path d="M735 464L900 446L690 299Z" fill="#0e1c32" stroke="#0e1c32"></path><path d="M900 446L900 262L690 299Z" fill="#1b3150" stroke="#1b3150"></path><path d="M698 600L900 600L735 464Z" fill="#0a1628" stroke="#0a1628"></path><path d="M900 262L900 122L704 150Z" fill="#0a1628" stroke="#0a1628"></path><path d="M900 122L900 0L757 0Z" fill="#234066" stroke="#234066"></path></g></svg>