<svg id="visual" viewBox="0 0 900 600" width="900" height="600" xmlns="http://www.w3.org/2000/svg" xmlns:xlink="http://www.w3.org/1999/xlink" version="1.1"><path d="M417 0L463 0L463 86L531 86L531 171L569 171L569 257L413 257L413 343L473 343L473 429L546 429L546 514L451 514L451 600L0 600L0 514L0 514L0 429L0 429L0 343L0 343L0 257L0 257L0 171L0 171L0 86L0 86L0 0L0 0Z" fill="#00aed8"></path><path d="M398 0L456 0L456 86L422 86L422 171L438 171L438 257L374 257L374 343L392 343L392 429L454 429L454 514L479 514L479 600L0 600L0 514L0 514L0 429L0 429L0 343L0 343L0 257L0 257L0 171L0 171L0 86L0 86L0 0L0 0Z" fill="#00a6e6"></path><path d="M316 0L393 0L393 86L298 86L298 171L303 171L303 257L416 257L416 343L423 343L423 429L427 429L427 514L328 514L328 600L0 600L0 514L0 514L0 429L0 429L0 343L0 343L0 257L0 257L0 171L0 171L0 86L0 86L0 0L0 0Z" fill="#009cf1"></path><path d="M246 0L246 0L246 86L313 86L313 171L362 171L362 257L355 257L355 343L371 343L371 429L271 429L271 514L287 514L287 600L0 600L0 514L0 514L0 429L0 429L0 343L0 343L0 257L0 257L0 171L0 171L0 86L0 86L0 0L0 0Z" fill="#008ff8"></path><path d="M264 0L267 0L267 86L213 86L213 171L198 171L198 257L251 257L251 343L266 343L266 429L280 429L280 514L205 514L205 600L0 600L0 514L0 514L0 429L0 429L0 343L0 343L0 257L0 257L0 171L0 171L0 86L0 86L0 0L0 0Z" fill="#517ef8"></path><path d="M161 0L196 0L196 86L190 86L190 171L150 171L150 257L151 257L151 343L203 343L203 429L233 429L233 514L222 514L222 600L0 600L0 514L0 514L0 429L0 429L0 343L0 343L0 257L0 257L0 171L0 171L0 86L0 86L0 0L0 0Z" fill="#8368ef"></path><path d="M94 0L171 0L171 86L156 86L156 171L121 171L121 257L89 257L89 343L92 343L92 429L102 429L102 514L154 514L154 600L0 600L0 514L0 514L0 429L0 429L0 343L0 343L0 257L0 257L0 171L0 171L0 86L0 86L0 0L0 0Z" fill="#ab4adc"></path><path d="M110 0L33 0L33 86L38 86L38 171L54 171L54 257L94 257L94 343L35 343L35 429L82 429L82 514L84 514L84 600L0 600L0 514L0 514L0 429L0 429L0 343L0 343L0 257L0 257L0 171L0 171L0 86L0 86L0 0L0 0Z" fill="#cc00bf"></path></svg>